# xmcd
#
# Track frame offsets: 
#        150
#        26735
#        44804
#        69854
#        94983
#        115756
#        132630
#        152656
#        173231
#        196792
#        224481
#        249175
#
# Disc length: 3553 seconds
#
# Revision: 0
# Processed by: cddbd v1.5.2PL0 Copyright (c) Steve Scherf et al.
# Submitted via: ExactAudioCopyFreeDBPlugin 1.0
#
DISCID=aa0ddf0c
DTITLE=Fritz Ostermayer - Kitsch Concrète
DYEAR=2003
DGENRE=Mego
TTITLE0=Ave Little Maria
TTITLE1=Skin Fire
TTITLE2=1000 Dank
TTITLE3=Alpharhythmen
TTITLE4=Big White Cloud
TTITLE5=Nimm ihn! (Jodler für Bert Brecht)
TTITLE6=Sleeping Violins (In der finstersten Nacht am Arsch der Welt..
TTITLE6=ratlos)
TTITLE7=Just A Closer Walk With Thee
TTITLE8=Fun Bunch Of Guys
TTITLE9=Angst In My Pants
TTITLE10=Hunger: Der Rausch in der Revolte
TTITLE11=Dream Alleinunterhalter Dream
EXTD=
EXTT0=
EXTT1=
EXTT2=
EXTT3=
EXTT4=
EXTT5=
EXTT6=
EXTT7=
EXTT8=
EXTT9=
EXTT10=
EXTT11=
PLAYORDER=
